<svg xmlns="http://www.w3.org/2000/svg" baseProfile="tiny" version="1.2" viewBox="0 0 1024 1024">
  <path fill="#aa87bd" d="m735 345 1 1a1 1 0 0 1-1 1q-6-2-4-8v-1c-7 0-9 6-16 5l-1-1q-3-4-7-4h-1l-1-2-1 1q-1 2-4 2l4-4v-1q5-1 3-6l-1-1c-5 3-11 8-15 5v-1h2a1 1 36 0 0 0-1q-6 0-10 3v1h1v1c0 1-2 1-2-1h-1c-3 3-7 0-10 0l-4-2-3-3-1 1h1l1 1v1a1 1 0 0 1-1 1l-19 1h-3a1 1-57 0 1-1 0h-1l1-1 1-1q-4-5-10-8a1 1 0 0 0-1 1v5a1 1 84 0 1 0 1h-6l-11 1h-4l-20 5-1-1c-4-7-14-5-19 1h-1v1a1 1 0 0 1-2 0l-1-1h-1q-4 3-8 1l-1-1-1-2-1 1q0 3-3 3h-1l-3-2v-2l-1-1v-1h-1q-4 0-4 5a1 1-10 0 1-1 1l-6 2-2-2a1 1-43 0 0-1 0c-2 2-3 5-6 3h-3l-1-1h-10q-3-2-5 0a2 2 0 0 0 0 3l2 1 1 1 1-1 1-1 2 2a2 2 2 0 0 1 0l2 2a1 1 0 0 1-1 1l-4-2c-3-1-5 0-8-2h-4a2 2-7 0 1-1-1l-6-6v1l1 3-1 1-7 4h-1l-3 1a1 1 0 0 0-1 1q5 3 7 8l-1 1-6 1a1 1-29 0 1-1 0q-1-2-2 0h-1l-5 2h-1q-2 0-3-2h-1q-3 0-4-2a1 1 0 0 1 0-1h2a1 1 45 0 0 1 0l4-2q4 0 5-3l-1-1-4-3-4-5a1 1 0 0 0-2 1l-1 3a1 1 0 0 0 0 1h2v1a1 1 43 0 1-1 0c-6-3-20-14-26-10-3 2-3 5-4 8a1 1-68 0 0 0 1l3 2v1h-11c-2 0-9-2-10 0h-1l-5-1a1 1 0 0 0-1 0l-1 1a2 2 74 0 1 0 1q-3 3-6 2-6-1-12-6l-1-1c-10 0-14 3-14 13h-1l-1-3v-1l-1 1h-1l-4 1v1l2 1h-1l-14-5a2 2 52 0 0-1 0q-5 0-8-3a1 1 19 0 0-1 1q0 3-3 6c-3-1-3 2-3 3a1 1 14 0 1-2 1q-2 0-2-2v-1c-2-4-6 0-7 2a1 1 0 0 1-2 0q-1-5-5-4l-1 1h-1l-11-2c-4 5-13 1-16-1h-7l-1 2h2a1 1 0 0 1 0 1l1 4a1 1 0 0 1-2 0l-3-2a1 1 0 0 0-1 0l-1 1a1 1-38 0 1-1 0h-2a1 1-19 0 0-1 0q1 2-1 3a1 1 0 0 1-1 0l-4-1a1 1 0 0 0-1 0v1a1 1 0 0 0 0 1q2 1 2 4a1 1 0 0 1-2 1l-4-2h-1c-7 0-8-12-17-9l-4 1c-3 2-5 1-7 3v-2a1 1 8 0 1 1 0q3 0 5-3a2 2 0 0 0 1-1l-1-5a1 1 67 0 1 0-1c3-2 7-2 10 0l12 8 10 4v-6a1 1 0 0 1 2-1l5 2 1-4a1 1 0 0 1 1-1c4-2 4 4 7 1h1c2 0 3 2 5 3 3 0 10 2 11-2q6 2 13 2a1 1 10 0 0 1-1l1-4a1 1-89 0 1 1-1c8-3 10 5 17 4a1 1-8 0 0 1-1c-1-6 5-4 8-1h1c7-1 10 2 15 3a1 1-51 0 0 1 0l7-1c3-8 8-9 15-10l3 1c4 3 12 8 17 5v-1l2-2a1 1-41 0 1 1 0l3 1a1 1 13 0 0 2-1v-1l1-1c3 4 8 3 13 3 6 0 3-5 5-9q6-7 14-3l3 2c4 1 6 5 11 6l2-4h1c4 3 5 6 11 5h7l9-4v-1l-2-4a1 1 0 0 1 2-1l7 6 1 1q5-3 8-7a2 2 0 0 1 2 0c3 2 7 5 11 2 3-3 4-2 7 0l1 1h7l4-1a1 1 0 0 0 1 0q0-6 6-7a1 1 0 0 1 1 1c1 2 1 5 5 6l1-4a1 1 0 0 1 2-1l2 3v1q6 2 8-3a1 1 0 0 1 2 0l1 2h1q10-11 21-2l1 1 18-4h1q0-2 2-3a1 1 0 0 1 2 0l1 2a1 1 0 0 0 1 1l12-2a1 1-8 0 0 1-1v-4a2 2 0 0 1 3-1l10 8 4 2 9-1h1v-2a1 1 0 0 1 1-1l4 1 1-1 1-1h1c4 0 3 5 8 4h1c3 2 5 3 8 1s8-5 12-4l1 1c2 2 11-3 13-4a1 1 0 0 1 2 1q1 5-2 9v1l4 1c3 2 5 6 10 3q5-4 11-4a1 1 0 0 1 0 1c0 3-1 7 3 7Zm-72-13v-1h-5a1 1 0 0 0 0 1h6-1Z"/>
  <path fill="#c1a4d1" d="m735 345 1-1 3 7a2 2-23 0 0 3 1c3-2 11-5 14-3 4 1 6 3 5 7l-1 2v1l10-5a1 1 67 0 1 2 1l1 4 3 3h1l8 2c4 1 6-1 8-1l9-2a1 1 0 0 1 2 1c-1 4 6 3 9 3l4 4c3 2 5 6 9 4l14-3a1 1 18 0 1 1 2c-8 9 7 12 13 12l1 1v3l1 1 3-2a1 1 62 0 1 1 1c6 8 14 4 20-1a1 1 79 0 1 1 0l-4 12a1 1 0 0 1-2 1h-3v-1c-3-3-8-4-11-5h-1q-3 1-5-1a2 1 26 0 0-4 1l1 1v1q0 2 2 3a1 1 0 0 1 1 0q-2 3 0 6a1 1 0 0 1-1 2h-9c-2 1-6-1-7 3a1 1 0 0 1-2 0h-3c-5-2-11-6-16-2a2 2-71 0 1-1 1c-4 0-6 3-10 0l-8-4a1 1 0 0 0-1 2c2 1 2 3 4 3l7 4-1 1c-3-1-7-4-11-4l-11 2-15-2h-3l-1 1 1 2h-1l-4 2h-1l-5-2a2 2 0 0 0-2 0l-2 3-7-1-1-1q6-2 10-6a1 1 0 0 0 0-1c-9-1-13 4-20 7-6 3-14 5-20 5a2 2 56 0 1-1 0c-5-3-12-7-17-4a1 1 0 0 0 0 1l1 2h-4l-2 1h-1l-11-6c-6-2-8 4-13 5l-10 2h-15l3 4v1l-25 3h-1q-9-5-18-5c-5 0-6 4-12 4q-12-2-25 0h-1l-5-2h-1c-2 1-2 4-5 3l-8-1h-13q-4-3-9-4l-1 1-1 2 3 4v1h-9v-1l3-2v-1h-2l-17 1a1 1 0 0 0 0 1l4 4a1 1-36 0 1 0 2l-5 1a1 1 0 0 0-1 1l-1 3v1l-14 1c-5 1-14-4-18-6h-1c1-5-6-10-11-13q-4-3-8-1a1 1 0 0 0 0 1c4 2 10 1 13 6q1 0 0 0-2 3-5 4l-24 9c-8 3-13 4-20 2h-1l-10 2a2 2 0 0 1-2-2l-1-3v-4a1 1 0 0 0-1-2l-6 2-1 1q-4 0-5 3h-1c-11 3-21 7-32 2h-1c-4 2-8 0-12-2a1 1 0 0 1 1-1q5-1 9-4h-1q-6-1-12 1v2h-1q-4-2-8 0a1 1 0 0 0 0 2c4 1 6 1 9 5v1c-3 3-6 6-11 7-4 1-11 2-15 1l-10-4-11-4c-5-3-12-4-17-8v-1q2-3 6-3l1-1c-2-2-8 2-10 2a1 1-33 0 1-1 0l-3-2h-2l-3-3a2 2 18 0 1-2-3l3-3 8-3a1 1 0 0 0-1-1c-9-1-19-1-28-3-5-1-9-3-11-7v-1q3-4 8-4l1-1-2-1h-17a1 1-44 0 0-1 0c-3 1-9-1-12-2-3-2-6-1-9-5a2 2 28 0 1 0-1l-1-3a1 1 0 0 1 0-1l4-1a1 1 0 0 0 0-2v-2l3-4 1-1 4-1 13-2v-1l-4-1-1-1q-1-2-3-2a1 1 0 0 1-1-1l2-2a1 1-47 0 0-1-1l-6-3q-2-1 0-2c6-3 11-15 16-2a1 1 2 0 0 1 1q3 2 4-1l3-2a1 1 0 0 1 1 0q4 2 8 1c2-2 4-1 7-3l4-1c9-3 10 9 17 9h1l4 2a1 1 0 0 0 2-1q0-3-2-4a1 1 0 0 1 0-1v-1a1 1 0 0 1 1 0l4 1a1 1 0 0 0 1 0q2-1 1-3a1 1-19 0 1 1 0h2a1 1-38 0 0 1 0l1-1a1 1 0 0 1 1 0l3 2a1 1 0 0 0 2 0l-1-4a1 1 0 0 0 0-1h-2l1-2h7c3 2 12 6 16 1l11 2h1l1-1q4-1 5 4a1 1 0 0 0 2 0c1-2 5-6 7-2v1q0 2 2 2a1 1 14 0 0 2-1c0-1 0-4 3-3q3-3 3-6a1 1 19 0 1 1-1q3 3 8 3a2 2 52 0 1 1 0l14 5h1l-2-1v-1l4-1h1l1-1v1l1 3h1c0-10 4-13 14-13l1 1q6 5 12 6 3 1 6-2a2 2 74 0 0 0-1l1-1a1 1 0 0 1 1 0l5 1h1c1-2 8 0 10 0h11v-1l-3-2a1 1-68 0 1 0-1c1-3 1-6 4-8 6-4 20 7 26 10a1 1 43 0 0 1 0v-1h-2a1 1 0 0 1 0-1l1-3a1 1 0 0 1 2-1l4 5 4 3 1 1q-1 3-5 3l-4 2a1 1 45 0 1-1 0h-2a1 1 0 0 0 0 1q1 2 4 2h1q1 2 3 2h1l5-2h1q1-2 2 0a1 1-29 0 0 1 0l6-1 1-1q-2-5-7-8a1 1 0 0 1 1-1l3-1h1l7-4 1-1-1-3v-1l6 6a2 2-7 0 0 1 1h4c3 2 5 1 8 2l4 2a1 1 0 0 0 1-1l-2-2a2 2 2 0 1-1 0l-2-2-1 1-1 1-1-1-2-1a2 2 0 0 1 0-3q2-2 5 0h10l1 1h3c3 2 4-1 6-3a1 1-43 0 1 1 0l2 2 6-2a1 1-10 0 0 1-1q0-5 4-5h1v1l1 1v2l3 2h1q3 0 3-3l1-1 1 2 1 1q4 2 8-1h1l1 1a1 1 0 0 0 2 0v-1h1c5-6 15-8 19-1l1 1 20-5h4l11-1h6a1 1 84 0 0 0-1v-5a1 1 0 0 1 1-1q6 3 10 8l-1 1-1 1h1a1 1-57 0 0 1 0h3l19-1a1 1 0 0 0 1-1v-1l-1-1h-1l1-1 3 3 4 2c3 0 7 3 10 0h1c0 2 2 2 2 1v-1h-1v-1q4-3 10-3a1 1 36 0 1 0 1h-2v1c4 3 10-2 15-5l1 1q2 5-3 6v1l-4 4q3 0 4-2l1-1 1 2h1q4 0 7 4l1 1c7 1 9-5 16-5v1q-2 6 4 8a1 1 0 0 0 1-1l-1-1Zm-51 4q4 4 9 4a1 1 0 0 0 0-1q-4-3-4-9a2 2 0 0 0-3-2c-5 1-5 6-9 9l-7 5a1 1 0 0 0 1 1l6-3h2c2 1 4-2 5-4Zm37 9c-6-2-12-3-17 3v1q4 5 8 1l9-4v-1Zm-269 5q1 2 3 2l1 1h3a2 2 0 0 0 0-4l-3-1v-1h-1c-3 0-8-1-9 3a2 2 0 0 0 1 2q2 0 3-2a1 1 0 0 1 2 0Zm266 12 12-3a5 2-15 0 0-5-1l-3 1a5 2-15 0 0-4 3Zm-273-4v1a8 1 20 0 0 7 2h1a8 1 20 0 0-7-3h-1Zm249 2c-2-2-10 3-12 5a1 1 0 0 0 1 1l1-1 9-3a1 1 0 0 0 1-2Zm-68 5-1-3a1 1 0 0 0-1 0l-2 2v1q3-1 4 2h1c2-1 7-2 6-6a1 1 0 0 0-1 0q-3 1-5 4h-1Zm-59-1q2 1 1 3a1 1 0 0 0 1 1v-4q-2-2-5-2c-3 0-4 2-7 4v1h1a1 1 0 0 0 1 0q3-3 7-4l1 1Zm253 1 2-2h1l-1-1-5 3-1 1-4 1a1 1 0 0 0 0 1c1 0 9 1 8-2v-1Zm-514 4 13 3 4-1v-1l-7-6h-4l-1 1q-4 0-6 4h1Zm386-2 11 1v-1c-1-1-11-2-12-1l1 1Zm27 2h12a5 2-1 0 0-5-2h-3a5 2-1 0 0-4 2Zm40 1 3 1 1-1c-1-7-12 0-14 2a1 1 0 0 0 1 1l4-2h1l3-1h1Zm-362 0h-4l1 3 1 1 1 2a1 1 0 0 0 2-1v-4a2 1 21 0 0-1-1Zm210 4 9-3a4 2-21 0 0-5-1h-1a4 2-21 0 0-3 4Zm166 0 6 1 8 3a1 1 0 0 0 0-1l-3-3-6-4h-1l-2 1h-1q-3-1-4 1a1 1 0 0 0 1 2h2Zm-188 4c6-2 9 0 15 2v-1c-3-2-12-5-16-1h1Zm-245 1q3 2 4 5a1 1 12 0 0 0 1l6 3a1 1 0 0 0 2-2c-1-1-3-2-2-4v-1q-4-4-10-3a1 1 0 0 0 0 1Zm114 5c8 0 18 1 25 4a1 1 0 0 0 1 0c-1-4-18-8-22-10h-1q-3 1-4 5a1 1 0 0 0 1 1Zm-239-5c-3-1-13-2-13 3a1 1 0 0 0 1 1l12-3v-1Zm449 1h-1a1 1 70 0 0-1-1h-4l-7 5 1 1 6-2h1c4 2 9 1 13-1v-1c0-2-3 0-4 1h-1l-1-3a1 1 0 0 0-1 0v1h-1Zm-45 3c1 1 3 2 5 1a1 1 0 0 0-1-2l-3-1a1 1 0 0 0-1 2Zm-368 0 11 3a1 1 0 0 0 0-1q-5-3-11-2c-4 0-8-1-9 4l1 1 5 3h1q2-1 3 1a1 1 0 0 0 1 1l4-3a1 1 0 0 0 0-1l-6-5a1 1 0 0 1 0-1Zm375 3a2 2 0 0 0 2 1c3-2 0-4-1-4h-1q-2 2 0 3Zm-22 0c2 0 13 0 12-2v-1c-3 0-10 0-12 2a1 1 0 0 0 0 1Zm206 1 7-1v-1c-1-3-6-1-7 0a1 1 0 0 0 0 2Zm-237-1h4a1 1 0 0 0 0-1c-6-3-11 0-12 6a1 1 0 0 0 1 1l6-6a1 1-52 0 1 1 0Zm148 4c2 0 3 1 4-1a2 2 0 0 0 0-2c-4-4-12 2-14 6l10-3Zm-344 3-4 1a1 1-38 0 0-1 2l4 1h1q3 2 7 2h1l-3-6q-1 0 0 0c4-3 8 0 12 0a1 1-40 0 0 0-2l-10-2h-7a1 1 61 0 0 0 3v1Zm170 1a5 1 25 0 0-4-3 5 1 25 0 0-5-2 5 1 25 0 0 4 3 5 1 25 0 0 5 2Zm-133 3a1 1 0 0 0 0-1l-14-5a1 1 0 0 0-1 1 1 1 0 0 0 1 1l13 4a1 1 0 0 0 1 0Zm-171-5q-1 2-3 2v2l5-2a1 1 0 0 0 0-1l-1-1a1 1 0 0 0-1 0Zm200 9-10 5a1 1 0 0 0 0 1q9 0 17-2a1 1 0 0 0 0-1q-1-2-3-2v-1c2-4-7-5-9-5v1l6 3a1 1 0 0 1-1 1Zm48-4h-1l-4 2a1 1-56 0 0 0 1l6 2 1-1h1q0-1 0 0l6 2q-1-7-8-5l-1-1Zm64 5a1 1 0 0 0-1-1l-20 1a1 1 0 0 0-1 1 1 1 0 0 0 1 0h20a1 1 0 0 0 1-1Zm46 2 11 1a5 3 5 0 0-4-3h-1a5 3 5 0 0-6 2Zm-293 5c5-2 9-2 15-1q2 0 2-2 1 0 0 0l-8-2-8 1v1l-1 2v1Zm156-1q3 2 8 2a1 1 0 0 0 0-2q-3-3-7-3-3 1-1 3Zm-49 3 1 3a1 1 0 0 0 1 1c4-1-4-8-6-7v1l3 1 1 1Zm203 1a3 1 19 0 0-3-2 3 1 19 0 0-3 0 3 1 19 0 0 3 2 3 1 19 0 0 3 0Zm-321 0 7 3h1a4 2 26 0 0-3-3 4 2 26 0 0-5-1v1Zm67 5 9 1a2 2 0 0 0 1-3c-2-1-10-2-11 1a1 1 0 0 0 1 1Zm-83 5 11-4c-1 0-13 0-13 2q0 2 2 2Z"/>
  <path fill="#c1a4d1" d="M663 332h1-6a1 1 0 0 1 0-1h5v1Z"/>
  <path fill="#aa87bd" d="M684 349c-1 2-3 5-5 4h-2l-6 3a1 1 0 0 1-1-1l7-5c4-3 4-8 9-9a2 2 0 0 1 3 2q0 6 4 9a1 1 0 0 1 0 1q-5 0-9-4Z"/>
  <path fill="#aa87bd" d="M874 420a1 1-14 0 0-1-1q-12 4-25 4a1 1 9 0 0-1 0q-1 4-5 4c-12-1-21 1-34 3a2 2 51 0 1-1 0l-8-2a1 1-82 0 0-1 0c-3 11-19 5-26 3l-1 1c-2 5-7 7-12 8s-12-5-16-7a2 2 63 0 0-1 0c-16 0-32 2-48 4l-1 3v1c-8 4-15 9-22 0v-1l1-1c-19 2-33 4-44 3l-1 1 1 2a1 1 0 0 1-1 0h-14q-3 6-10 3l-5-2c-18 0-31 0-46 5q-4 2-17 2c-4 3-14 5-15-1v-1l-12 2v1c-2 7-12 6-17 5a1 1 80 0 1-1-1c-7-11-25-3-35-4l-14-1a1 1 0 0 0 0 1l3 4a1 1 17 0 1 1 1q0 3-3 5h-1l-10-5h-1l-16 2c-3 0-8 3-11 1q-5-3-13-2l-37 3c-9 0-17 2-26 3l-7 2c-5 1-18 3-23 0l-17-10-11-6v3a1 1 0 0 1-1 1l-3-2-2-5h-1l-13-7v1l-1 2h-1l-5-5v4q1 1 0 0c-4 0-11-9-13-12h-3q-4 0-7-2c-2 0-4-2-6-4h-3q-5-4-8-10c-1-2-7-3-10-4-4-1-5-4-8-7-2-4-6-6-10-9l-12-9-2-1-1 1h-2 1a1 1 0 0 0-1-1l-8-1h-1c3-2 8-3 4-7l-4-5a1 1 0 0 1 1-1c9-2 16-6 25 0h1l8-5c5-2 10-1 15 1l1-1 3-2 6-7c5-4 9 1 10 5h1l3 1q-1 3-4 1a1 1 2 0 1-1-1c-5-13-10-1-16 2q-2 1 0 2l6 3a1 1-47 0 1 1 1l-2 2a1 1 0 0 0 1 1q2 0 3 2l1 1 4 1v1l-13 2-4 1-1 1-3 4v2a1 1 0 0 1 0 2l-4 1a1 1 0 0 0 0 1l1 3a2 2 28 0 0 0 1c3 4 6 3 9 5 3 1 9 3 12 2a1 1-44 0 1 1 0h17l2 1-1 1q-5 0-8 4v1c2 4 6 6 11 7 9 2 19 2 28 3a1 1 0 0 1 1 1l-8 3-3 3a2 2 18 0 0 2 3l3 3h2l3 2a1 1-33 0 0 1 0c2 0 8-4 10-2l-1 1q-4 0-6 3v1c5 4 12 5 17 8l11 4 10 4c4 1 11 0 15-1 5-1 8-4 11-7v-1c-3-4-5-4-9-5a1 1 0 0 1 0-2q4-2 8 0h1v-2q6-2 12-1h1q-4 3-9 4a1 1 0 0 0-1 1c4 2 8 4 12 2h1c11 5 21 1 32-2h1q1-3 5-3l1-1 6-2a1 1 0 0 1 1 2v4l1 3a2 2 0 0 0 2 2l10-2h1c7 2 12 1 20-2l24-9q3-1 5-4 1 0 0 0c-3-5-9-4-13-6a1 1 0 0 1 0-1q4-2 8 1c5 3 12 8 11 13h1c4 2 13 7 18 6l14-1v-1l1-3a1 1 0 0 1 1-1l5-1a1 1-36 0 0 0-2l-4-4a1 1 0 0 1 0-1l17-1h2v1l-3 2v1h9v-1l-3-4 1-2 1-1q5 1 9 4h13l8 1c3 1 3-2 5-3h1l5 2h1q13-2 25 0c6 0 7-4 12-4q9 0 18 5h1l25-3v-1l-3-4h15l10-2c5-1 7-7 13-5l11 6h1l2-1h4l-1-2a1 1 0 0 1 0-1c5-3 12 1 17 4a2 2 56 0 0 1 0c6 0 14-2 20-5 7-3 11-8 20-7a1 1 0 0 1 0 1q-4 4-10 6l1 1 7 1 2-3a2 2 0 0 1 2 0l5 2h1l4-2h1l-1-2 1-1h3l15 2 11-2c4 0 8 3 11 4l1-1-7-4c-2 0-2-2-4-3a1 1 0 0 1 1-2l8 4c4 3 6 0 10 0a2 2-71 0 0 1-1c5-4 11 0 16 2h3a1 1 0 0 0 2 0c1-4 5-2 7-3h9a1 1 0 0 0 1-2q-2-3 0-6a1 1 0 0 0-1 0q-2-1-2-3v-1l-1-1a2 1 26 0 1 4-1q2 2 5 1h1c3 1 8 2 11 5v1h3a1 1 0 0 0 2-1l4-12a1 1 79 0 0-1 0c-6 5-14 9-20 1a1 1 62 0 0-1-1l-3 2-1-1v-3l-1-1c-6 0-21-3-13-12a1 1 18 0 0-1-2l-14 3c-4 2-6-2-9-4l-4-4c-3 0-10 1-9-3a1 1 0 0 0-2-1l-9 2c-2 0-4 2-8 1l-8-2h-1l-3-3-1-4a1 1 67 0 0-2-1l-10 5v-1l1-2c1-4-1-6-5-7-3-2-11 1-14 3a2 2-23 0 1-3-1l-3-7 1-1a1 1 67 0 1 1 0l2 5 3-3c2 4 12 3 15 1v2h1q4 3 3 7a1 1 0 0 0 2 1q5-3 11-3v5a3 3 0 0 0 3 3l10 2h1q7-3 14-3a1 1 0 0 1 1 1c-2 3 6 3 8 3l1-1c3-1 7 6 9 8a3 3-23 0 0 3 1l14-3a2 2 0 0 1 2 3c-7 8 9 11 13 11h1q3 3 7 3 1 0 0 0v2c6 7 13 2 18-2a1 1 0 0 1 2 0c1 1-3 11-4 13v5l1 1q3-1 5 1a2 2 0 0 1 1 2q-2 3 1 5a1 1-50 0 1 0 1l-4 2a1 1 77 0 0 0 1c0 2-6 3-8 3Zm-101-66v2l1-2a1 1 0 0 0-1 0Z"/>
  <path fill="#c1a4d1" d="M773 354a1 1 0 0 1 1 0l-1 2v-2Z"/>
  <path fill="#aa87bd" d="M704 361c5-6 11-5 17-3v1l-9 4q-4 4-8-1v-1Zm-252 2a1 1 0 0 0-2 0q-1 2-3 2a2 2 0 0 1-1-2c1-4 6-3 9-3h1v1l3 1a2 2 0 0 1 0 4h-3l-1-1q-2 0-3-2Zm266 12a5 2-15 0 1 4-3l3-1a5 2-15 0 1 5 1l-12 3Zm-273-4h1a8 1 20 0 1 7 3h-1a8 1 20 0 1-7-2v-1Zm237 7c2-2 10-7 12-5a1 1 0 0 1-1 2l-9 3-1 1a1 1 0 0 1-1-1Zm-55 0q2-3 5-4a1 1 0 0 1 1 0c1 4-4 5-6 6h-1q-1-3-4-2v-1l2-2a1 1 0 0 1 1 0l1 3h1Zm-61-2q-4 1-7 4a1 1 0 0 1-1 0h-1v-1c3-2 4-4 7-4q3 0 5 2v4a1 1 0 0 1-1-1q1-2-1-3l-1-1Zm254 3c1 3-7 2-8 2a1 1 0 0 1 0-1l4-1 1-1 5-3 1 1h-1l-2 2v1Zm-514 3h-1q2-4 6-4l1-1h4l7 6v1l-4 1-13-3Zm397-1-11-1-1-1c1-1 11 0 12 1v1Zm16 1a5 2-1 0 1 4-2h3a5 2-1 0 1 5 2h-12Zm39 1-3 1h-1l-4 2a1 1 0 0 1-1-1c2-2 13-9 14-2l-1 1-3-1h-1Zm-361 0a2 1 21 0 1 1 1v4a1 1 0 0 1-2 1l-1-2-1-1-1-3h4Zm210 4a4 2-21 0 1 3-4h1a4 2-21 0 1 5 1l-9 3Zm166 0h-2a1 1 0 0 1-1-2q1-2 4-1h1l2-1h1l6 4 3 3a1 1 0 0 1 0 1l-8-3-6-1Z"/>
  <path fill="#473d4f" d="M148 385h1c1 3 6 3 8 2h2l1-1 2 1q-4 0-3 2c-4 1-9 0-11-3v-1Z"/>
  <path fill="#c1a4d1" d="M157 387c-2 1-7 1-8-2l8 1a1 1 0 0 1 1 1h-1Z"/>
  <path fill="#3a383b" d="m162 387 12 9c4 3 8 5 10 9 3 3 4 6 8 7 3 1 9 2 10 4q3 6 8 10h3c2 2 4 4 6 4q3 2 7 2h3c2 3 9 12 13 12q1 1 0 0v-4l5 5h1l1-2v-1l13 7h1l2 5 3 2a1 1 0 0 0 1-1v-3l11 6 17 10c5 3 18 1 23 0l7-2c9-1 17-3 26-3l37-3q8-1 13 2c3 2 8-1 11-1l16-2h1l10 5h1q3-2 3-5a1 1 17 0 0-1-1l-3-4a1 1 0 0 1 0-1l14 1c10 1 28-7 35 4a1 1 80 0 0 1 1c5 1 15 2 17-5v-1l12-2v1c1 6 11 4 15 1q13 0 17-2c15-5 28-5 46-5l5 2q7 3 10-3h14a1 1 0 0 0 1 0l-1-2 1-1c11 1 25-1 44-3l-1 1v1c7 9 14 4 22 0v-1l1-3c16-2 32-4 48-4a2 2 63 0 1 1 0c4 2 11 8 16 7s10-3 12-8l1-1c7 2 23 8 26-3a1 1-82 0 1 1 0l8 2a2 2 51 0 0 1 0c13-2 22-4 34-3q4 0 5-4a1 1 9 0 1 1 0q13 0 25-4a1 1-14 0 1 1 1l-1 3v161l-1 214c0 6 1 10-1 16v1q-7 5-15 5h-8l-1-3-1-1-12-10-1-1v-8l2-335c0-5 0-8-3-11l-2-1-140 12v1l-1 184-1 11v15a3 3 79 0 1-1 2q-4 3-9 3l-1 1-3 2h-1l-5-3h-3q-4-5-9-8l-1-1 1-10v-96l-1-95a1 1-2 0 0-1-2l-68 6-173 15-65 5c-9 1-15 1-19 7l-1 1v362l-14 1v1c-1 1-4 2-5 0h-1c-4-1-8-6-11-9-2-3-6-4-6-8v-55c2-36-1-72-1-108V507c-1-8 0-17-8-22l-56-34-31-17h-1v9l-1 114-1-2h-4c-3-1-7 1-10-2l-1 3v1l1 20 1 61-1 13-1 22-1 58-1 3a1 1 21 0 1-2 1l-4-3-6-5h-1l-1-1V584l-1-190v-4h-1v-1q-1-2 3-2Z"/>
  <path fill="#aa87bd" d="M600 393c-6-2-9-4-15-2h-1c4-4 13-1 16 1v1Zm-260-1a1 1 0 0 1 0-1q6-1 10 3v1c-1 2 1 3 2 4a1 1 0 0 1-2 2l-6-3a1 1 12 0 1 0-1q-1-3-4-5Zm114 5a1 1 0 0 1-1-1q1-4 4-5h1c4 2 21 6 22 10a1 1 0 0 1-1 0c-7-3-17-4-25-4Zm-239-5v1l-12 3a1 1 0 0 1-1-1c0-5 10-4 13-3Zm450 1v-1a1 1 0 0 1 1 0l1 3h1c1-1 4-3 4-1v1c-4 2-9 3-13 1h-1l-6 2-1-1 7-5h4a1 1 70 0 1 1 1h2Zm-41 4c-2 1-4 0-5-1a1 1 0 0 1 1-2l3 1a1 1 0 0 1 1 2Zm-362 2-11-3a1 1 0 0 0 0 1l6 5a1 1 0 0 1 0 1l-4 3a1 1 0 0 1-1-1q-1-2-3-1h-1l-5-3-1-1c1-5 5-4 9-4q6-1 11 2a1 1 0 0 1 0 1Zm364 0q-2-1 0-3h1c1 0 4 2 1 4a2 2 0 0 1-2-1Zm-22 0a1 1 0 0 1 0-1c2-2 9-2 12-2v1c1 2-10 2-12 2Zm206 1a1 1 0 0 1 0-2c1-1 6-3 7 0v1l-7 1Zm-237-1a1 1-52 0 0-1 0l-6 6a1 1 0 0 1-1-1c1-6 6-9 12-6a1 1 0 0 1 0 1h-4Zm148 4-10 3c2-4 10-10 14-6a2 2 0 0 1 0 2c-1 2-2 1-4 1Zm-344 3v-1a1 1 61 0 1 0-3h7l10 2a1 1-40 0 1 0 2c-4 0-8-3-12 0q-1 0 0 0l3 6h-1q-4 0-7-2h-1l-4-1a1 1-38 0 1 1-2l4-1Z"/>
  <ellipse fill="#aa87bd" rx="5.1" ry=".8" transform="rotate(25 -627 1406)"/>
  <rect width="15.6" height="1.3" x="-7.8" y="-.6" fill="#aa87bd" rx=".6" transform="rotate(19 -1007 1412)"/>
  <path fill="#aa87bd" d="M243 405a1 1 0 0 1 1 0l1 1a1 1 0 0 1 0 1l-5 2v-2q2 0 3-2Zm200 9a1 1 0 0 0 1-1l-6-3v-1c2 0 11 1 9 5v1q2 0 3 2a1 1 0 0 1 0 1q-8 2-17 2a1 1 0 0 1 0-1l10-5Zm49-3q7-2 8 5l-6-2q0-1 0 0h-1l-1 1-6-2a1 1-56 0 1 0-1l4-2h1l1 1Z"/>
  <rect width="22.2" height="1.8" x="-11.1" y="-.9" fill="#aa87bd" rx=".9" transform="rotate(-1 20104 -25775)"/>
  <path fill="#aa87bd" d="M601 417a5 3 5 0 1 6-2h1a5 3 5 0 1 4 3l-11-1Zm-278 4c-6-1-10-1-15 1v-1l1-2v-1l8-1 8 2q1 0 0 0 0 2-2 2Zm141 0q-2-2 1-3 4 0 7 3a1 1 0 0 1 0 2q-5 0-8-2Zm-50 2-3-1v-1c2-1 10 6 6 7a1 1 0 0 1-1-1l-1-3-1-1Z"/>
  <ellipse fill="#aa87bd" rx="3.2" ry=".9" transform="rotate(19 -987 2089)"/>
  <path fill="#aa87bd" d="M297 425v-1a4 2 26 0 1 5 1 4 2 26 0 1 3 3h-1l-7-3Zm67 5a1 1 0 0 1-1-1c1-3 9-2 11-1a2 2 0 0 1-1 3l-9-1Zm-83 5q-2 0-2-2c0-2 12-2 13-2l-11 4Z"/>
  <path fill="#473d4f" d="m193 557 1 171a2 2-13 0 1-1 2l-18 7a1 1-34 0 1-1 0l-5-5 4 3a1 1 21 0 0 2-1l1-3 1-58 1-22 1-13-1-61-1-20v-1l1-3c3 3 7 1 10 2h4l1 2Z"/>
  <path fill="#c1a4d1" d="M848 820h4-4Z"/>
</svg>